PathFileType	4	(X/Y/Z)	./resultDataOpenSim/trcMotMarkerGrf/sub10/qtm-05-02.trc
DataRate	CameraRate	NumFrames	NumMarkers	Units	OrigDataRate	OrigDataStartFrame	OrigNumFrames
250.000000	250.000000	11	24	m	250.000000	464	530
Frame#	Time	L.Toe.Tip			R.Toe.Tip			L.Ankle.Lat			R.Ankle.Lat			L.Ankle.Med			R.Ankle.Med			L.Heel			R.Heel			L.Knee.Lat			R.Knee.Lat			L.Knee.Med			R.Knee.Med			L.Thigh.Upper			R.Thigh.Upper			L.ASIS			R.ASIS			V.Sacral			L.Acromium			R.Acromium			C7			L.Elbow			R.Elbow			L.Wrist.Lat			R.Wrist.Lat
		X1	Y1	Z1	X2	Y2	Z2	X3	Y3	Z3	X4	Y4	Z4	X5	Y5	Z5	X6	Y6	Z6	X7	Y7	Z7	X8	Y8	Z8	X9	Y9	Z9	X10	Y10	Z10	X11	Y11	Z11	X12	Y12	Z12	X13	Y13	Z13	X14	Y14	Z14	X15	Y15	Z15	X16	Y16	Z16	X17	Y17	Z17	X18	Y18	Z18	X19	Y19	Z19	X20	Y20	Z20	X21	Y21	Z21	X22	Y22	Z22	X23	Y23	Z23	X24	Y24	Z24

464	1.852	1.6085686	0.11837441	-0.068112365	0.89988975	0.037954401	0.057918879	1.4784524	0.088595277	-0.10567645	0.76422914	0.070413524	0.10017773	1.475254	0.11141233	-0.025771638	0.78998802	0.09560386	0.016709878	1.4309389	0.035072488	-0.063854147	0.70840535	0.05928543	0.053785417	1.3293421	0.45181809	-0.12612451	0.96739198	0.42239705	0.13941898	1.3345805	0.4224759	-0.0077948676	0.9934351	0.42321301	0.013112866	1.1939474	0.8114566	-0.16931738	1.0522085	0.82212542	0.19717171	1.216939	0.92234927	-0.08026603	1.1463671	0.90955071	0.15836454	0.99216346	0.91383095	-0.027171694	1.1151055	1.3869991	-0.11592147	1.0659968	1.3872808	0.19838925	1.0123186	1.4045158	0.025506544	0.95810219	1.0987915	-0.21034043	1.1023045	1.0452653	0.33070403	1.0079031	0.87994951	-0.30761709	1.3540872	1.061665	0.29890188
465	1.856	1.6122627	0.1167926	-0.067385048	0.90005893	0.037963644	0.05795125	1.4827785	0.087129472	-0.10510793	0.76481261	0.071775464	0.10023665	1.4797768	0.11000692	-0.025307137	0.79087946	0.09667034	0.016781802	1.4351408	0.033800748	-0.063566644	0.70892203	0.061195927	0.053827661	1.3359976	0.45146393	-0.12572067	0.97062718	0.42214613	0.13917657	1.3409605	0.42207144	-0.0074733277	0.99729874	0.42254975	0.012987163	1.1999973	0.81089162	-0.16945953	1.0568725	0.82146712	0.19653253	1.2229839	0.92120713	-0.08007851	1.1516378	0.90853077	0.15833893	0.99795047	0.91317095	-0.027977605	1.1203012	1.3862502	-0.11656909	1.0714647	1.3864728	0.19759577	1.0175064	1.4036056	0.024771934	0.96332369	1.0978747	-0.21010802	1.1086463	1.0445163	0.3297435	1.0120857	0.87909534	-0.30766683	1.3601475	1.0606327	0.29687134
466	1.86	1.6158262	0.11485664	-0.066777935	0.90024438	0.037980249	0.057998145	1.486742	0.085582097	-0.10460977	0.76547665	0.073205644	0.10034419	1.4839092	0.10843991	-0.024864255	0.79181557	0.097801025	0.01690211	1.4389193	0.032411204	-0.063293337	0.70950152	0.063196158	0.053926546	1.3426789	0.45113702	-0.12531566	0.97392911	0.42193572	0.13895028	1.3474256	0.42175861	-0.007121577	1.0012086	0.42189321	0.012868189	1.205993	0.81042227	-0.16960856	1.0616297	0.82081814	0.1958861	1.2290466	0.92017488	-0.079928351	1.156995	0.90753749	0.15830611	1.0040023	0.91253587	-0.028780572	1.1255125	1.3855423	-0.11724948	1.0772142	1.3856353	0.19668309	1.0227251	1.4027348	0.024023463	0.96866103	1.0969618	-0.20989577	1.1149342	1.043795	0.3287001	1.016383	0.8782288	-0.30767347	1.3661649	1.0595852	0.29486957
467	1.864	1.6193005	0.11259977	-0.066316739	0.90044843	0.038004183	0.058050727	1.4903651	0.083967526	-0.10418846	0.76624587	0.074718117	0.10049414	1.4876723	0.10673028	-0.024438291	0.79280045	0.098996977	0.017066226	1.4423071	0.030908938	-0.063013837	0.71014579	0.065283316	0.054068937	1.349359	0.45082175	-0.12491559	0.97730718	0.42176522	0.13874105	1.3539406	0.42150882	-0.006751341	1.0051682	0.42124579	0.012757381	1.2119507	0.81002368	-0.16976518	1.0664833	0.82017993	0.19524127	1.2351557	0.91923775	-0.07981837	1.1624355	0.90656667	0.15825731	1.0102028	0.91194435	-0.029591445	1.1307414	1.3848768	-0.11795621	1.0830498	1.3848282	0.19572691	1.0279687	1.4018917	0.023258547	0.97410579	1.0960487	-0.20971098	1.1211688	1.0431027	0.32756547	1.0207933	0.87735111	-0.30764215	1.3721415	1.058524	0.29290221
468	1.868	1.6226013	0.11008921	-0.065945053	0.90067371	0.038041376	0.05810126	1.4936634	0.082274051	-0.10381649	0.76716393	0.076304226	0.10067056	1.4910969	0.10491314	-0.024026172	0.79384354	0.1002567	0.017268022	1.445314	0.029313516	-0.062730956	0.71084631	0.06745505	0.054243337	1.3560149	0.45050212	-0.12452673	0.98077135	0.42163129	0.1385482	1.3604836	0.42129792	-0.0063733146	1.0091768	0.42060984	0.012654616	1.2178862	0.80966647	-0.16992587	1.0714333	0.81955025	0.19460192	1.2413339	0.91837151	-0.079748654	1.1679537	0.90562014	0.15818211	1.0164621	0.91139951	-0.030376799	1.1359892	1.3842531	-0.11868393	1.0887452	1.3841212	0.19481314	1.0332408	1.4010741	0.022470191	0.9796569	1.0951375	-0.20955818	1.1273678	1.0424541	0.32637122	1.0253173	0.8764612	-0.30758145	1.3780822	1.0574437	0.29097412
469	1.872	1.6257225	0.1073546	-0.065650907	0.90091816	0.038093427	0.058144364	1.4966745	0.080475116	-0.10348308	0.76824294	0.077939602	0.10085771	1.4942082	0.1030226	-0.023623877	0.79495443	0.10157848	0.017501878	1.4479186	0.027699303	-0.062459102	0.7116004	0.069713413	0.054445659	1.3626244	0.4501622	-0.12415628	0.9843281	0.42152787	0.13836748	1.3670456	0.42111494	-0.0059943954	1.0132357	0.41998832	0.012558347	1.2238151	0.80932301	-0.17008428	1.0764823	0.81892469	0.19397444	1.2475711	0.91756827	-0.079724161	1.1735552	0.90470377	0.15807948	1.0227391	0.91089359	-0.031112274	1.1412676	1.3836626	-0.11943136	1.0942394	1.3835315	0.19396155	1.0385466	1.4002869	0.021659398	0.98531279	1.0942302	-0.20943763	1.1335643	1.0418745	0.32516569	1.0299608	0.87555775	-0.30750111	1.383991	1.0563376	0.28908839
470	1.876	1.6287611	0.10438975	-0.065488702	0.90117357	0.038149651	0.058183718	1.4994577	0.078540617	-0.10321267	0.7694138	0.079611075	0.10105464	1.4970244	0.10106934	-0.023222763	0.79613884	0.10296072	0.017763446	1.4500726	0.026221355	-0.062206407	0.71241986	0.07206454	0.054673178	1.3691697	0.44978734	-0.1238103	0.98798036	0.4214474	0.13819545	1.3736197	0.42095706	-0.0056196827	1.0173526	0.41938446	0.012473889	1.2297572	0.8089755	-0.17024035	1.0816345	0.81829912	0.19336666	1.2538379	0.9168382	-0.079750273	1.1792548	0.90382223	0.15795351	1.0290247	0.91041739	-0.031795874	1.1465904	1.3830924	-0.1201975	1.0996122	1.3830325	0.19313891	1.0438891	1.3995271	0.020837316	0.99106733	1.0933279	-0.20934903	1.1397704	1.0413705	0.32397753	1.0347305	0.8746383	-0.30740711	1.3898674	1.0552033	0.28724662
471	1.88	1.6317578	0.10118955	-0.065470309	0.90143701	0.03819566	0.05822894	1.5020417	0.076469124	-0.10301453	0.77058443	0.081333791	0.1012773	1.499566	0.0990416	-0.022812686	0.79740004	0.10439932	0.018050333	1.4517316	0.025048558	-0.061976307	0.71332072	0.074511307	0.054912514	1.3756422	0.44936663	-0.12349127	0.99173008	0.42138272	0.13803379	1.3801936	0.42081714	-0.005254745	1.021534	0.41880369	0.012411642	1.2357352	0.80861727	-0.17040015	1.0868983	0.8176731	0.19278204	1.2601215	0.91619173	-0.079828955	1.1850598	0.9029759	0.15779993	1.03533	0.90996436	-0.032431712	1.1519537	1.3825367	-0.12098222	1.1049717	1.3825864	0.19230576	1.0492702	1.398782	0.020013756	0.99691006	1.0924314	-0.20929523	1.1459413	1.0409094	0.32278655	1.0396314	0.87369662	-0.30729991	1.3957081	1.0540439	0.28544867
472	1.884	1.6345781	0.09773982	-0.065464289	0.90172078	0.038228188	0.058288401	1.5043815	0.074331118	-0.10283347	0.77171582	0.083151468	0.10155154	1.5018658	0.096942834	-0.022387175	0.79874379	0.10588722	0.018361217	1.4529174	0.024228035	-0.06176865	0.71431979	0.077051434	0.055134872	1.382038	0.44889585	-0.12319996	0.99557903	0.42132623	0.13788721	1.3867563	0.42068089	-0.0049052208	1.025781	0.41825195	0.012375472	1.2417691	0.80824817	-0.17056992	1.0922925	0.81705328	0.19221601	1.2664333	0.91562508	-0.079960752	1.1909638	0.90216125	0.15760744	1.0416635	0.90953232	-0.033020008	1.1573426	1.3819987	-0.12178808	1.1104038	1.3821621	0.19143668	1.0546878	1.3980418	0.019180072	1.002831	1.0915371	-0.2092788	1.1520102	1.0404465	0.3215504	1.0446673	0.87272721	-0.30717798	1.4015128	1.0528625	0.2836923
473	1.888	1.6370841	0.093920382	-0.065287056	0.90204366	0.038255902	0.05836707	1.5064289	0.072276787	-0.10260256	0.7728291	0.085100059	0.10188761	1.5039946	0.094845496	-0.021944299	0.8001805	0.10742142	0.018693365	1.4537501	0.02368436	-0.061552086	0.71543422	0.079684074	0.055316147	1.388346	0.448378	-0.12293936	0.99952802	0.42126877	0.13776212	1.3933112	0.42053772	-0.004577933	1.0300996	0.41772777	0.012362021	1.2478729	0.80787205	-0.1707578	1.0978416	0.81645202	0.19165576	1.272777	0.91512609	-0.08014446	1.1969575	0.90137326	0.15737277	1.048016	0.90912324	-0.033556889	1.1627507	1.3814786	-0.12261653	1.1159333	1.3817535	0.19052673	1.0601345	1.3973052	0.018311504	1.0088297	1.0906388	-0.20929954	1.1579509	1.0399644	0.32025696	1.0498398	0.87173163	-0.30704045	1.4072877	1.051658	0.28197439
474	1.892	1.6394027	0.089465906	-0.064887328	0.90241153	0.038290419	0.058463489	1.5082593	0.070505892	-0.10232222	0.77399406	0.087152488	0.10224805	1.5061005	0.092912172	-0.021483395	0.80172407	0.10900878	0.019042276	1.4544085	0.023432029	-0.061270754	0.71666297	0.082415226	0.055476273	1.3945458	0.44782593	-0.1227125	1.0035822	0.42120554	0.13766233	1.3998688	0.42038547	-0.0042832974	1.034509	0.41722061	0.012367954	1.2540555	0.80749881	-0.17097853	1.1035502	0.81587408	0.19108517	1.2791215	0.91468999	-0.08037523	1.2030402	0.90060506	0.15710322	1.0543671	0.90874238	-0.034038053	1.1681797	1.3809704	-0.12346792	1.1215195	1.3813781	0.18958717	1.0656053	1.3965758	0.017391601	1.014913	1.0897316	-0.20936136	1.1637766	1.0394657	0.31892453	1.0551477	0.8707133	-0.3068885	1.4130412	1.0504256	0.28029272
